<svg width="402" height="83" viewBox="0 0 402 83" fill="none" xmlns="http://www.w3.org/2000/svg">
<path d="M30.0811 5.49023H20.4131L15.645 33H10.2397L15.0298 5.49023H5.42773L6.21875 1.00781H30.8721L30.0811 5.49023ZM41.2651 33.4395C39.1851 33.3955 37.354 32.8975 35.772 31.9453C34.2046 30.9932 32.9814 29.6162 32.1025 27.8145C31.2236 25.998 30.7256 23.9399 30.6084 21.6401C30.5059 19.8091 30.667 17.6704 31.0918 15.2241C31.5312 12.7778 32.3003 10.5513 33.3989 8.54443C34.5122 6.52295 35.8379 4.875 37.376 3.60059C39.9102 1.52051 42.8398 0.509766 46.165 0.568359C49.3291 0.626953 51.8486 1.71826 53.7236 3.84229C55.6133 5.96631 56.646 8.8374 56.8218 12.4556C56.9097 14.272 56.7412 16.3594 56.3164 18.7178C55.9062 21.0615 55.1885 23.2222 54.1631 25.1997C53.1523 27.1626 51.8926 28.8032 50.3838 30.1216C47.7764 32.4067 44.7368 33.5127 41.2651 33.4395ZM51.2627 16.147L51.4604 13.8179C51.5483 12.2212 51.4092 10.749 51.043 9.40137C50.6768 8.03906 50.0542 7.00635 49.1753 6.30322C48.311 5.58545 47.2124 5.20459 45.8794 5.16064C44.0337 5.10205 42.3931 5.62207 40.9575 6.7207C39.5366 7.81934 38.3794 9.48926 37.4858 11.7305C36.6069 13.9717 36.0942 16.7842 35.9478 20.168C35.8013 22.8486 36.2114 24.958 37.1782 26.4961C38.145 28.0342 39.5952 28.8325 41.5288 28.8911C44.063 28.9644 46.1504 28.0122 47.791 26.0347C49.4463 24.0571 50.5303 21.2739 51.043 17.6851L51.2627 16.147ZM71.6313 33.4395C69.5513 33.3955 67.7202 32.8975 66.1382 31.9453C64.5708 30.9932 63.3477 29.6162 62.4688 27.8145C61.5898 25.998 61.0918 23.9399 60.9746 21.6401C60.8721 19.8091 61.0332 17.6704 61.458 15.2241C61.8975 12.7778 62.6665 10.5513 63.7651 8.54443C64.8784 6.52295 66.2041 4.875 67.7422 3.60059C70.2764 1.52051 73.2061 0.509766 76.5312 0.568359C79.6953 0.626953 82.2148 1.71826 84.0898 3.84229C85.9795 5.96631 87.0122 8.8374 87.188 12.4556C87.2759 14.272 87.1074 16.3594 86.6826 18.7178C86.2725 21.0615 85.5547 23.2222 84.5293 25.1997C83.5186 27.1626 82.2588 28.8032 80.75 30.1216C78.1426 32.4067 75.103 33.5127 71.6313 33.4395ZM81.6289 16.147L81.8267 13.8179C81.9146 12.2212 81.7754 10.749 81.4092 9.40137C81.043 8.03906 80.4204 7.00635 79.5415 6.30322C78.6772 5.58545 77.5786 5.20459 76.2456 5.16064C74.3999 5.10205 72.7593 5.62207 71.3237 6.7207C69.9028 7.81934 68.7456 9.48926 67.8521 11.7305C66.9731 13.9717 66.4604 16.7842 66.314 20.168C66.1675 22.8486 66.5776 24.958 67.5444 26.4961C68.5112 28.0342 69.9614 28.8325 71.895 28.8911C74.4292 28.9644 76.5166 28.0122 78.1572 26.0347C79.8125 24.0571 80.8965 21.2739 81.4092 17.6851L81.6289 16.147ZM95.8892 28.5615H109.996L109.205 33H89.6929L95.252 1.00781H100.679L95.8892 28.5615ZM131.243 24.6064C131.565 22.4971 130.416 20.9297 127.793 19.9043L126.014 19.2451C122.703 18.0879 120.352 16.7183 118.96 15.1362C117.569 13.5542 116.939 11.7158 117.071 9.62109C117.188 7.80469 117.803 6.20801 118.917 4.83105C120.044 3.43945 121.524 2.37012 123.355 1.62305C125.186 0.875977 127.134 0.524414 129.2 0.568359C131.192 0.612305 132.964 1.05176 134.517 1.88672C136.07 2.70703 137.256 3.85693 138.077 5.33643C138.897 6.80127 139.278 8.47852 139.219 10.3682L133.814 10.3462C133.917 8.67627 133.543 7.37988 132.693 6.45703C131.858 5.53418 130.591 5.05078 128.892 5.00684C127.178 4.97754 125.728 5.38037 124.542 6.21533C123.37 7.05029 122.681 8.17822 122.476 9.59912C122.183 11.4595 123.428 12.9243 126.211 13.9937L127.859 14.5869C131.214 15.7881 133.558 17.2017 134.891 18.8276C136.224 20.439 136.81 22.3506 136.648 24.5625C136.502 26.3643 135.909 27.939 134.869 29.2866C133.829 30.6196 132.386 31.6523 130.54 32.3848C128.709 33.1172 126.688 33.4688 124.476 33.4395C122.381 33.4248 120.477 32.9854 118.763 32.1211C117.063 31.2568 115.76 30.063 114.852 28.5396C113.943 27.0015 113.526 25.2583 113.599 23.3101L119.026 23.332C118.909 25.1484 119.356 26.5474 120.367 27.5288C121.377 28.5103 122.828 29.0156 124.717 29.0449C126.475 29.0742 127.94 28.7007 129.112 27.9243C130.298 27.1479 131.009 26.042 131.243 24.6064ZM171.519 19.4429H159.039L156.688 33H151.26L156.797 1.00781H176.573L175.782 5.49023H161.456L159.808 15.0044H172.31L171.519 19.4429ZM187.779 33.4395C185.699 33.3955 183.868 32.8975 182.286 31.9453C180.718 30.9932 179.495 29.6162 178.616 27.8145C177.737 25.998 177.239 23.9399 177.122 21.6401C177.02 19.8091 177.181 17.6704 177.605 15.2241C178.045 12.7778 178.814 10.5513 179.913 8.54443C181.026 6.52295 182.352 4.875 183.89 3.60059C186.424 1.52051 189.354 0.509766 192.679 0.568359C195.843 0.626953 198.362 1.71826 200.237 3.84229C202.127 5.96631 203.16 8.8374 203.335 12.4556C203.423 14.272 203.255 16.3594 202.83 18.7178C202.42 21.0615 201.702 23.2222 200.677 25.1997C199.666 27.1626 198.406 28.8032 196.897 30.1216C194.29 32.4067 191.25 33.5127 187.779 33.4395ZM197.776 16.147L197.974 13.8179C198.062 12.2212 197.923 10.749 197.557 9.40137C197.19 8.03906 196.568 7.00635 195.689 6.30322C194.825 5.58545 193.726 5.20459 192.393 5.16064C190.547 5.10205 188.907 5.62207 187.471 6.7207C186.05 7.81934 184.893 9.48926 184 11.7305C183.121 13.9717 182.608 16.7842 182.461 20.168C182.315 22.8486 182.725 24.958 183.692 26.4961C184.659 28.0342 186.109 28.8325 188.042 28.8911C190.577 28.9644 192.664 28.0122 194.305 26.0347C195.96 24.0571 197.044 21.2739 197.557 17.6851L197.776 16.147ZM219.529 20.6733H213.421L211.268 33H205.84L211.399 1.00781L221.485 1.02979C224.957 1.02979 227.615 1.86475 229.461 3.53467C231.307 5.20459 232.105 7.52637 231.856 10.5C231.695 12.5654 231.006 14.3599 229.791 15.8833C228.575 17.3921 226.868 18.5786 224.671 19.4429L229.395 32.6704L229.373 33H223.616L219.529 20.6733ZM214.168 16.2129L219.419 16.2568C221.309 16.2568 222.884 15.7661 224.144 14.7847C225.418 13.7886 226.165 12.4409 226.385 10.7417C226.604 9.08643 226.312 7.81934 225.506 6.94043C224.7 6.04687 223.477 5.5708 221.836 5.51221L216.036 5.49023L214.168 16.2129ZM263.189 25.5513H251.214L247.391 33H241.546L258.816 1.00781H263.694L269.891 33H264.441L263.189 25.5513ZM253.499 21.0688H262.464L260.289 7.84131L253.499 21.0688ZM298.587 22.563C298.045 25.9028 296.543 28.5688 294.083 30.561C291.622 32.5386 288.626 33.498 285.096 33.4395C283.06 33.3955 281.272 32.9121 279.734 31.9893C278.211 31.0664 277.017 29.7261 276.153 27.9683C275.289 26.1958 274.805 24.1963 274.703 21.9697C274.615 20.2998 274.82 18.0293 275.318 15.1582C275.816 12.2725 276.768 9.68701 278.174 7.40186C279.595 5.1167 281.331 3.39551 283.382 2.23828C285.447 1.08105 287.74 0.524414 290.259 0.568359C293.438 0.626953 295.95 1.63037 297.796 3.57861C299.656 5.51221 300.645 8.18555 300.762 11.5986H295.379C295.306 9.31348 294.822 7.66553 293.929 6.65479C293.05 5.62939 291.739 5.09473 289.996 5.05078C287.608 4.97754 285.608 5.83447 283.997 7.62158C282.386 9.40869 281.302 12.0088 280.745 15.4219L280.306 18.3442L280.108 20.5854C279.991 22.0942 280.093 23.5151 280.416 24.8481C280.752 26.1665 281.338 27.1772 282.173 27.8804C283.008 28.5688 284.07 28.9351 285.359 28.979C289.446 29.1401 292.068 27.0161 293.226 22.6069L298.587 22.563ZM328.514 5.49023H318.846L314.078 33H308.672L313.462 5.49023H303.86L304.651 1.00781H329.305L328.514 5.49023ZM333.721 33H328.316L333.875 1.00781H339.28L333.721 33ZM352.881 33.4395C350.801 33.3955 348.97 32.8975 347.388 31.9453C345.821 30.9932 344.598 29.6162 343.719 27.8145C342.84 25.998 342.342 23.9399 342.225 21.6401C342.122 19.8091 342.283 17.6704 342.708 15.2241C343.147 12.7778 343.917 10.5513 345.015 8.54443C346.128 6.52295 347.454 4.875 348.992 3.60059C351.526 1.52051 354.456 0.509766 357.781 0.568359C360.945 0.626953 363.465 1.71826 365.34 3.84229C367.229 5.96631 368.262 8.8374 368.438 12.4556C368.526 14.272 368.357 16.3594 367.933 18.7178C367.522 21.0615 366.805 23.2222 365.779 25.1997C364.769 27.1626 363.509 28.8032 362 30.1216C359.393 32.4067 356.353 33.5127 352.881 33.4395ZM362.879 16.147L363.077 13.8179C363.165 12.2212 363.025 10.749 362.659 9.40137C362.293 8.03906 361.67 7.00635 360.792 6.30322C359.927 5.58545 358.829 5.20459 357.496 5.16064C355.65 5.10205 354.009 5.62207 352.574 6.7207C351.153 7.81934 349.996 9.48926 349.102 11.7305C348.223 13.9717 347.71 16.7842 347.564 20.168C347.417 22.8486 347.828 24.958 348.794 26.4961C349.761 28.0342 351.211 28.8325 353.145 28.8911C355.679 28.9644 357.767 28.0122 359.407 26.0347C361.062 24.0571 362.146 21.2739 362.659 17.6851L362.879 16.147ZM395.596 33H390.345L380.347 10.0825L376.37 33H370.943L376.502 1.00781H381.753L391.751 24.0132L395.75 1.00781H401.155L395.596 33ZM18.0137 67.3535H5.88477L1.78906 75H0.734375L14.4102 49.4238L15.5527 49.4062L20.4746 75H19.4727L18.0137 67.3535ZM6.37695 66.4043H17.8203L14.8672 50.6016L6.37695 66.4043ZM38.9316 50.8477L38.0527 55.9805H42.2188L42.0957 56.9473H37.877L35.4688 70.8691L35.3984 71.8359C35.3633 72.6328 35.5273 73.2598 35.8906 73.7168C36.2539 74.1621 36.8047 74.3906 37.543 74.4023C37.8711 74.4023 38.5098 74.3496 39.459 74.2441L39.4941 75.1406C38.9551 75.2812 38.3164 75.3516 37.5781 75.3516C35.5859 75.3516 34.5488 74.3262 34.4668 72.2754C34.4434 71.6777 34.4844 71.0684 34.5898 70.4473L36.9102 56.9473H33.5176L33.6582 55.9805H37.0859L37.9648 50.8477H38.9316ZM47.3164 60.4102C48.2656 58.875 49.3848 57.6973 50.6738 56.877C51.9629 56.0449 53.293 55.6289 54.6641 55.6289C56.1172 55.6289 57.2598 56.0039 58.0918 56.7539C58.9238 57.5039 59.4043 58.5879 59.5332 60.0059C59.6035 60.8965 59.5566 61.8281 59.3926 62.8008L57.2832 75H56.334L58.4434 62.8008C58.584 61.9805 58.6426 61.1719 58.6191 60.375C58.5605 59.1328 58.1914 58.1836 57.5117 57.5273C56.8438 56.8711 55.8828 56.5488 54.6289 56.5605C53.0234 56.584 51.4766 57.2109 49.9883 58.4414C48.5117 59.6602 47.5098 61.1191 46.9824 62.8184L44.873 75H43.9238L48.582 48H49.5312L47.3164 60.4102ZM70.168 75.3516C68.6445 75.3516 67.332 74.9238 66.2305 74.0684C65.1289 73.2129 64.332 72.0469 63.8398 70.5703C63.3594 69.082 63.2363 67.5234 63.4707 65.8945L63.6113 65.0156C63.8926 63.3047 64.4902 61.7051 65.4043 60.2168C66.3301 58.7285 67.4258 57.5918 68.6914 56.8066C69.957 56.0215 71.3105 55.6289 72.752 55.6289C74.6738 55.6289 76.1797 56.3379 77.2695 57.7559C78.3594 59.1738 78.8223 60.9902 78.6582 63.2051L78.6055 63.75L78.4473 64.8574H64.6309L64.4375 65.8945C64.2734 66.8789 64.2676 67.875 64.4199 68.8828C64.6777 70.5586 65.3164 71.9004 66.3359 72.9082C67.3672 73.9043 68.6387 74.4082 70.1504 74.4199C72.3418 74.4434 74.3164 73.5762 76.0742 71.8184L76.707 72.3105C74.9727 74.3379 72.793 75.3516 70.168 75.3516ZM72.752 56.5781C70.9473 56.5781 69.3301 57.2578 67.9004 58.6172C66.4824 59.9648 65.4277 61.7285 64.7363 63.9082H77.5684L77.6211 63.6797C77.7734 62.8359 77.7852 61.9922 77.6562 61.1484C77.4453 59.7656 76.8945 58.6582 76.0039 57.8262C75.125 56.9941 74.041 56.5781 72.752 56.5781ZM92.3516 56.6484L91.209 56.5605C89.6387 56.5605 88.1797 57.1406 86.832 58.3008C85.4844 59.4609 84.582 60.873 84.125 62.5371L81.9629 75H81.0137L84.2832 55.9805H85.2324L84.4941 59.9355C85.291 58.5762 86.2637 57.5215 87.4121 56.7715C88.5605 56.0098 89.8379 55.6289 91.2441 55.6289C91.6895 55.6289 92.1348 55.6992 92.5801 55.8398L92.3516 56.6484ZM104.234 75C104.199 73.9688 104.311 72.8086 104.568 71.5195C103.584 72.7266 102.412 73.6699 101.053 74.3496C99.7051 75.0293 98.2402 75.3633 96.6582 75.3516C95.0645 75.3516 93.793 74.8594 92.8438 73.875C91.8945 72.8906 91.5371 71.6602 91.7715 70.1836C92.0645 68.3906 93.0547 66.9902 94.7422 65.9824C96.4414 64.9746 98.5918 64.4414 101.193 64.3828H105.711L106.221 61.6055C106.467 60.0469 106.156 58.8223 105.289 57.9316C104.422 57.0293 103.174 56.5781 101.545 56.5781C99.9512 56.5781 98.5098 57.0059 97.2207 57.8613C95.9316 58.7051 95.123 59.8184 94.7949 61.2012L93.8457 61.166C94.1738 59.5371 95.0762 58.207 96.5527 57.1758C98.0293 56.1445 99.6934 55.6289 101.545 55.6289C103.479 55.6289 104.961 56.1797 105.992 57.2812C107.023 58.3711 107.404 59.8242 107.135 61.6406L105.395 71.8008L105.271 72.9961C105.213 73.6172 105.236 74.2324 105.342 74.8418L105.324 75H104.234ZM96.6406 74.4199C98.2109 74.4434 99.7051 74.0684 101.123 73.2949C102.541 72.5098 103.748 71.3672 104.744 69.8672L105.553 65.3496H101.299C98.9316 65.3965 96.9746 65.8535 95.4277 66.7207C93.8926 67.5762 92.9844 68.7539 92.7031 70.2539C92.4922 71.4141 92.7676 72.3926 93.5293 73.1895C94.3027 73.9863 95.3398 74.3965 96.6406 74.4199ZM117.998 75.3516C116.65 75.3516 115.473 75.0586 114.465 74.4727C113.457 73.8867 112.719 73.0781 112.25 72.0469L110.439 82.3125H109.49L114.025 55.9805H114.975L114.324 59.373C115.156 58.248 116.152 57.3457 117.312 56.666C118.484 55.9746 119.785 55.6289 121.215 55.6289C122.445 55.6289 123.494 55.9336 124.361 56.543C125.229 57.1523 125.861 58.0488 126.26 59.2324C126.67 60.4043 126.852 61.7051 126.805 63.1348C126.77 63.8848 126.699 64.6055 126.594 65.2969L126.365 66.457C125.756 69.2109 124.713 71.3848 123.236 72.9785C121.76 74.5605 120.014 75.3516 117.998 75.3516ZM125.627 65.2969L125.838 63.416C125.955 61.1895 125.609 59.4961 124.801 58.3359C123.992 57.1641 122.803 56.5781 121.232 56.5781C119.686 56.5781 118.221 57.041 116.838 57.9668C115.467 58.8809 114.547 60.0176 114.078 61.377L112.496 70.2715C112.766 71.5957 113.393 72.6152 114.377 73.3301C115.373 74.0449 116.58 74.4023 117.998 74.4023C119.896 74.4023 121.502 73.6289 122.814 72.082C124.127 70.5234 125.047 68.3613 125.574 65.5957L125.627 65.2969ZM135.734 73.5234L135.91 73.1543L145.279 55.998H146.352L134.328 78.1992C133.461 79.8398 132.582 80.9883 131.691 81.6445C130.801 82.3125 129.811 82.6582 128.721 82.6816C128.275 82.6816 127.807 82.6172 127.314 82.4883L127.42 81.5918C128.018 81.6973 128.416 81.75 128.615 81.75C130.174 81.75 131.521 80.8828 132.658 79.1484L133.361 77.9883L135.066 74.8066L130.953 55.9629H131.955L135.734 73.5234ZM162.506 75.3516C161.158 75.3516 159.98 75.0586 158.973 74.4727C157.965 73.8867 157.227 73.0781 156.758 72.0469L154.947 82.3125H153.998L158.533 55.9805H159.482L158.832 59.373C159.664 58.248 160.66 57.3457 161.82 56.666C162.992 55.9746 164.293 55.6289 165.723 55.6289C166.953 55.6289 168.002 55.9336 168.869 56.543C169.736 57.1523 170.369 58.0488 170.768 59.2324C171.178 60.4043 171.359 61.7051 171.312 63.1348C171.277 63.8848 171.207 64.6055 171.102 65.2969L170.873 66.457C170.264 69.2109 169.221 71.3848 167.744 72.9785C166.268 74.5605 164.521 75.3516 162.506 75.3516ZM170.135 65.2969L170.346 63.416C170.463 61.1895 170.117 59.4961 169.309 58.3359C168.5 57.1641 167.311 56.5781 165.74 56.5781C164.193 56.5781 162.729 57.041 161.346 57.9668C159.975 58.8809 159.055 60.0176 158.586 61.377L157.004 70.2715C157.273 71.5957 157.9 72.6152 158.885 73.3301C159.881 74.0449 161.088 74.4023 162.506 74.4023C164.404 74.4023 166.01 73.6289 167.322 72.082C168.635 70.5234 169.555 68.3613 170.082 65.5957L170.135 65.2969ZM185.938 56.6484L184.795 56.5605C183.225 56.5605 181.766 57.1406 180.418 58.3008C179.07 59.4609 178.168 60.873 177.711 62.5371L175.549 75H174.6L177.869 55.9805H178.818L178.08 59.9355C178.877 58.5762 179.85 57.5215 180.998 56.7715C182.146 56.0098 183.424 55.6289 184.83 55.6289C185.275 55.6289 185.721 55.6992 186.166 55.8398L185.938 56.6484ZM197.82 75C197.785 73.9688 197.896 72.8086 198.154 71.5195C197.17 72.7266 195.998 73.6699 194.639 74.3496C193.291 75.0293 191.826 75.3633 190.244 75.3516C188.65 75.3516 187.379 74.8594 186.43 73.875C185.48 72.8906 185.123 71.6602 185.357 70.1836C185.65 68.3906 186.641 66.9902 188.328 65.9824C190.027 64.9746 192.178 64.4414 194.779 64.3828H199.297L199.807 61.6055C200.053 60.0469 199.742 58.8223 198.875 57.9316C198.008 57.0293 196.76 56.5781 195.131 56.5781C193.537 56.5781 192.096 57.0059 190.807 57.8613C189.518 58.7051 188.709 59.8184 188.381 61.2012L187.432 61.166C187.76 59.5371 188.662 58.207 190.139 57.1758C191.615 56.1445 193.279 55.6289 195.131 55.6289C197.064 55.6289 198.547 56.1797 199.578 57.2812C200.609 58.3711 200.99 59.8242 200.721 61.6406L198.98 71.8008L198.857 72.9961C198.799 73.6172 198.822 74.2324 198.928 74.8418L198.91 75H197.82ZM190.227 74.4199C191.797 74.4434 193.291 74.0684 194.709 73.2949C196.127 72.5098 197.334 71.3672 198.33 69.8672L199.139 65.3496H194.885C192.518 65.3965 190.561 65.8535 189.014 66.7207C187.479 67.5762 186.57 68.7539 186.289 70.2539C186.078 71.4141 186.354 72.3926 187.115 73.1895C187.889 73.9863 188.926 74.3965 190.227 74.4199ZM210.828 74.4023C212.492 74.4023 213.934 73.9277 215.152 72.9785C216.383 72.0293 217.203 70.7871 217.613 69.252H218.562C218.141 71.0684 217.221 72.5391 215.803 73.6641C214.385 74.7891 212.732 75.3516 210.846 75.3516C209.1 75.3516 207.682 74.8125 206.592 73.7344C205.514 72.6445 204.863 71.1387 204.641 69.2168C204.512 68.1035 204.529 66.9844 204.693 65.8594L204.799 65.1211C205.104 63.2578 205.684 61.5879 206.539 60.1113C207.406 58.6348 208.449 57.5215 209.668 56.7715C210.898 56.0098 212.252 55.6289 213.729 55.6289C215.639 55.6289 217.139 56.25 218.229 57.4922C219.33 58.7344 219.811 60.3223 219.67 62.2559H218.721C218.873 60.5684 218.48 59.2031 217.543 58.1602C216.617 57.1055 215.352 56.5781 213.746 56.5781C211.531 56.5781 209.691 57.4863 208.227 59.3027C206.762 61.1074 205.871 63.5273 205.555 66.5625L205.484 67.8457C205.484 69.9082 205.947 71.5195 206.873 72.6797C207.799 73.8281 209.117 74.4023 210.828 74.4023ZM228.529 50.8477L227.65 55.9805H231.816L231.693 56.9473H227.475L225.066 70.8691L224.996 71.8359C224.961 72.6328 225.125 73.2598 225.488 73.7168C225.852 74.1621 226.402 74.3906 227.141 74.4023C227.469 74.4023 228.107 74.3496 229.057 74.2441L229.092 75.1406C228.553 75.2812 227.914 75.3516 227.176 75.3516C225.184 75.3516 224.146 74.3262 224.064 72.2754C224.041 71.6777 224.082 71.0684 224.188 70.4473L226.508 56.9473H223.115L223.256 55.9805H226.684L227.562 50.8477H228.529ZM234.699 75H233.75L237.02 55.9805H237.969L234.699 75ZM237.582 50.0039C237.617 49.7695 237.74 49.5527 237.951 49.3535C238.174 49.1543 238.408 49.0547 238.654 49.0547C238.924 49.0547 239.141 49.1602 239.305 49.3711C239.48 49.582 239.545 49.8164 239.498 50.0742C239.463 50.3086 239.334 50.5254 239.111 50.7246C238.889 50.9121 238.654 51.0059 238.408 51.0059C238.139 50.9941 237.922 50.8887 237.758 50.6895C237.594 50.4902 237.535 50.2617 237.582 50.0039ZM247.355 74.4023C249.02 74.4023 250.461 73.9277 251.68 72.9785C252.91 72.0293 253.73 70.7871 254.141 69.252H255.09C254.668 71.0684 253.748 72.5391 252.33 73.6641C250.912 74.7891 249.26 75.3516 247.373 75.3516C245.627 75.3516 244.209 74.8125 243.119 73.7344C242.041 72.6445 241.391 71.1387 241.168 69.2168C241.039 68.1035 241.057 66.9844 241.221 65.8594L241.326 65.1211C241.631 63.2578 242.211 61.5879 243.066 60.1113C243.934 58.6348 244.977 57.5215 246.195 56.7715C247.426 56.0098 248.779 55.6289 250.256 55.6289C252.166 55.6289 253.666 56.25 254.756 57.4922C255.857 58.7344 256.338 60.3223 256.197 62.2559H255.248C255.4 60.5684 255.008 59.2031 254.07 58.1602C253.145 57.1055 251.879 56.5781 250.273 56.5781C248.059 56.5781 246.219 57.4863 244.754 59.3027C243.289 61.1074 242.398 63.5273 242.082 66.5625L242.012 67.8457C242.012 69.9082 242.475 71.5195 243.4 72.6797C244.326 73.8281 245.645 74.4023 247.355 74.4023ZM265.742 75.3516C264.219 75.3516 262.906 74.9238 261.805 74.0684C260.703 73.2129 259.906 72.0469 259.414 70.5703C258.934 69.082 258.811 67.5234 259.045 65.8945L259.186 65.0156C259.467 63.3047 260.064 61.7051 260.979 60.2168C261.904 58.7285 263 57.5918 264.266 56.8066C265.531 56.0215 266.885 55.6289 268.326 55.6289C270.248 55.6289 271.754 56.3379 272.844 57.7559C273.934 59.1738 274.396 60.9902 274.232 63.2051L274.18 63.75L274.021 64.8574H260.205L260.012 65.8945C259.848 66.8789 259.842 67.875 259.994 68.8828C260.252 70.5586 260.891 71.9004 261.91 72.9082C262.941 73.9043 264.213 74.4082 265.725 74.4199C267.916 74.4434 269.891 73.5762 271.648 71.8184L272.281 72.3105C270.547 74.3379 268.367 75.3516 265.742 75.3516ZM268.326 56.5781C266.521 56.5781 264.904 57.2578 263.475 58.6172C262.057 59.9648 261.002 61.7285 260.311 63.9082H273.143L273.195 63.6797C273.348 62.8359 273.359 61.9922 273.23 61.1484C273.02 59.7656 272.469 58.6582 271.578 57.8262C270.699 56.9941 269.615 56.5781 268.326 56.5781ZM286.537 75L289.631 56.9473H286.467L286.59 55.9805H289.824L290.264 53.2734C290.58 51.5508 291.242 50.1855 292.25 49.1777C293.258 48.1699 294.518 47.6543 296.029 47.6309C296.768 47.6309 297.506 47.7363 298.244 47.9473L297.98 48.8262C297.242 48.6387 296.592 48.5566 296.029 48.5801C294.799 48.6035 293.756 49.0488 292.9 49.916C292.045 50.7715 291.482 51.9492 291.213 53.4492L290.756 55.9805H295.625L295.484 56.9473H290.598L287.486 75H286.537ZM296.609 65.1211C296.902 63.3516 297.494 61.7402 298.385 60.2871C299.275 58.834 300.389 57.6973 301.725 56.877C303.061 56.0449 304.52 55.6289 306.102 55.6289C307.391 55.6289 308.533 55.916 309.529 56.4902C310.525 57.0645 311.316 57.9199 311.902 59.0566C312.488 60.1816 312.822 61.4297 312.904 62.8008C312.939 63.5977 312.869 64.6172 312.693 65.8594C312.4 67.6289 311.803 69.2461 310.9 70.7109C310.01 72.1758 308.896 73.3184 307.561 74.1387C306.236 74.9473 304.789 75.3516 303.219 75.3516C301.918 75.3516 300.77 75.0645 299.773 74.4902C298.789 73.9043 297.998 73.0547 297.4 71.9414C296.814 70.8164 296.486 69.5566 296.416 68.1621C296.369 67.377 296.434 66.3633 296.609 65.1211ZM297.436 68.8828C297.67 70.582 298.297 71.9297 299.316 72.9258C300.336 73.9102 301.631 74.4023 303.201 74.4023C305.041 74.4023 306.699 73.7578 308.176 72.4688C309.664 71.1797 310.736 69.4395 311.393 67.248C311.932 65.4316 312.09 63.7148 311.867 62.0977C311.609 60.3984 310.971 59.0566 309.951 58.0723C308.943 57.0762 307.666 56.5781 306.119 56.5781C304.279 56.5781 302.615 57.2344 301.127 58.5469C299.639 59.8477 298.566 61.5762 297.91 63.7324C297.371 65.5254 297.213 67.2422 297.436 68.8828ZM327.055 56.6484L325.912 56.5605C324.342 56.5605 322.883 57.1406 321.535 58.3008C320.188 59.4609 319.285 60.873 318.828 62.5371L316.666 75H315.717L318.986 55.9805H319.936L319.197 59.9355C319.994 58.5762 320.967 57.5215 322.115 56.7715C323.264 56.0098 324.541 55.6289 325.947 55.6289C326.393 55.6289 326.838 55.6992 327.283 55.8398L327.055 56.6484ZM341.961 73.5234L342.137 73.1543L351.506 55.998H352.578L340.555 78.1992C339.688 79.8398 338.809 80.9883 337.918 81.6445C337.027 82.3125 336.037 82.6582 334.947 82.6816C334.502 82.6816 334.033 82.6172 333.541 82.4883L333.646 81.5918C334.244 81.6973 334.643 81.75 334.842 81.75C336.4 81.75 337.748 80.8828 338.885 79.1484L339.588 77.9883L341.293 74.8066L337.18 55.9629H338.182L341.961 73.5234ZM353 65.1211C353.293 63.3516 353.885 61.7402 354.775 60.2871C355.666 58.834 356.779 57.6973 358.115 56.877C359.451 56.0449 360.91 55.6289 362.492 55.6289C363.781 55.6289 364.924 55.916 365.92 56.4902C366.916 57.0645 367.707 57.9199 368.293 59.0566C368.879 60.1816 369.213 61.4297 369.295 62.8008C369.33 63.5977 369.26 64.6172 369.084 65.8594C368.791 67.6289 368.193 69.2461 367.291 70.7109C366.4 72.1758 365.287 73.3184 363.951 74.1387C362.627 74.9473 361.18 75.3516 359.609 75.3516C358.309 75.3516 357.16 75.0645 356.164 74.4902C355.18 73.9043 354.389 73.0547 353.791 71.9414C353.205 70.8164 352.877 69.5566 352.807 68.1621C352.76 67.377 352.824 66.3633 353 65.1211ZM353.826 68.8828C354.061 70.582 354.688 71.9297 355.707 72.9258C356.727 73.9102 358.021 74.4023 359.592 74.4023C361.432 74.4023 363.09 73.7578 364.566 72.4688C366.055 71.1797 367.127 69.4395 367.783 67.248C368.322 65.4316 368.48 63.7148 368.258 62.0977C368 60.3984 367.361 59.0566 366.342 58.0723C365.334 57.0762 364.057 56.5781 362.51 56.5781C360.67 56.5781 359.006 57.2344 357.518 58.5469C356.029 59.8477 354.957 61.5762 354.301 63.7324C353.762 65.5254 353.604 67.2422 353.826 68.8828ZM384.465 75L385.062 71.9238C384.23 73.0723 383.223 73.9336 382.039 74.5078C380.855 75.0703 379.555 75.3516 378.137 75.3516C376.66 75.3516 375.488 74.959 374.621 74.1738C373.766 73.3887 373.268 72.2695 373.127 70.8164C373.045 69.8906 373.086 68.9355 373.25 67.9512L375.307 55.9805H376.256L374.164 68.0918C374.035 68.8887 373.994 69.6621 374.041 70.4121C374.1 71.6777 374.48 72.6621 375.184 73.3652C375.887 74.0566 376.859 74.4023 378.102 74.4023C379.812 74.4023 381.354 73.9395 382.725 73.0137C384.096 72.0762 384.998 70.8574 385.432 69.3574L387.734 55.9805H388.701L385.432 75H384.465Z" fill="#444E2A"/>
</svg>
